<?xml version="1.0" standalone="no"?>
<!DOCTYPE svg PUBLIC "-//W3C//DTD SVG 20010904//EN"
 "http://www.w3.org/TR/2001/REC-SVG-20010904/DTD/svg10.dtd">
<svg version="1.0" xmlns="http://www.w3.org/2000/svg"
 width="1772.000000pt" height="591.000000pt" viewBox="0 0 1772.000000 591.000000"
 preserveAspectRatio="xMidYMid meet">
<metadata>
Created by potrace 1.15, written by Peter Selinger 2001-2017
</metadata>
<g transform="translate(0.000000,591.000000) scale(0.100000,-0.100000)"
fill="#000000" stroke="none">
<path d="M2225 3519 c-563 -58 -1003 -265 -1284 -605 -315 -381 -414 -896
-260 -1359 183 -549 677 -897 1373 -964 277 -27 732 -3 1031 55 106 21 215 53
215 64 0 4 23 153 50 329 28 176 50 327 50 334 0 12 -8 12 -52 0 -200 -52
-804 -82 -1013 -49 -241 37 -394 105 -520 231 -132 131 -180 253 -179 455 1
135 19 223 70 327 209 435 857 609 1663 447 68 -14 135 -30 149 -35 13 -5 26
-8 28 -7 8 9 103 663 97 669 -19 18 -310 69 -542 95 -161 19 -742 27 -876 13z"/>
<path d="M4096 3453 c-3 -15 -100 -647 -216 -1403 -116 -756 -212 -1385 -215
-1397 l-5 -23 954 0 c998 0 1070 3 1282 45 465 94 788 331 979 720 132 269
195 555 195 880 -1 280 -46 464 -165 667 -85 145 -263 307 -431 391 -80 40
-244 94 -361 119 -107 23 -114 23 -1060 26 l-951 3 -6 -28z m1561 -598 c213
-40 353 -178 414 -410 30 -113 30 -300 1 -450 -68 -343 -201 -548 -428 -657
-141 -68 -218 -78 -598 -78 l-328 0 5 28 c2 15 58 377 123 805 l119 777 306 0
c230 0 327 -4 386 -15z"/>
<path d="M7590 3476 c0 -3 -52 -344 -116 -758 -105 -676 -117 -770 -122 -920
-6 -241 21 -401 97 -564 176 -376 550 -592 1115 -645 158 -15 488 -6 631 16
630 97 1024 411 1218 971 57 164 80 289 202 1084 63 415 118 770 121 788 l6
32 -481 0 -481 0 -5 -22 c-3 -13 -61 -390 -130 -838 -74 -485 -133 -841 -146
-880 -100 -306 -329 -480 -630 -480 -52 0 -122 7 -157 15 -179 42 -312 169
-357 340 -29 115 -22 192 105 1022 66 434 123 800 126 816 l6 27 -501 0 c-276
0 -501 -2 -501 -4z"/>
</g>
</svg>
